<svg width="120" height="120" viewBox="0 0 120 120" fill="none" xmlns="http://www.w3.org/2000/svg">
<g clip-path="url(#clip0_31_26)">
<path d="M23.285 26.09C22.0871 25.3872 20.761 24.9305 19.3844 24.7469C18.0078 24.5632 16.6084 24.6561 15.2681 25.0203C13.9279 25.3845 12.6739 26.0125 11.5795 26.8676C10.4851 27.7227 9.57247 28.7876 8.895 30C8.39732 30.887 8.02702 31.8397 7.795 32.83C6.435 38.585 9.915 44.37 15.565 45.75L15.56 74.245C13.5948 74.7338 11.8131 75.7809 10.43 77.26C8.5019 79.3283 7.45873 82.0684 7.52319 84.8952C7.58765 87.7221 8.75463 90.4118 10.775 92.39C11.7667 93.3586 12.9421 94.1191 14.232 94.6269C15.5219 95.1347 16.9003 95.3795 18.2862 95.3469C19.6721 95.3143 21.0374 95.0049 22.302 94.437C23.5666 93.8691 24.7049 93.0542 25.65 92.04L49.915 106.275C49.6265 107.264 49.4801 108.29 49.48 109.32C49.485 115.225 54.195 120.005 60 120C61.12 120 62.225 119.815 63.295 119.46C68.815 117.605 71.815 111.55 69.985 105.93L94.095 91.77C95.195 93.0303 96.5818 94.0078 98.1385 94.6203C99.6952 95.2327 101.376 95.462 103.04 95.289C104.704 95.116 106.302 94.5457 107.699 93.6261C109.097 92.7066 110.253 91.4647 111.07 90.005C111.585 89.1 111.975 88.12 112.21 87.1C113.555 81.37 110.075 75.62 104.445 74.255V45.76C105.409 45.5219 106.333 45.1464 107.19 44.645C109.629 43.2027 111.405 40.8612 112.136 38.1237C112.867 35.3863 112.495 32.4713 111.1 30.005C110.599 29.1256 109.974 28.3225 109.245 27.62C108.249 26.6509 107.07 25.8907 105.776 25.3844C104.482 24.878 103.1 24.6356 101.711 24.6715C100.322 24.7074 98.9547 25.0208 97.6888 25.5933C96.4228 26.1658 95.2842 26.9858 94.34 28.005L70.08 13.755C70.37 12.76 70.525 11.715 70.52 10.67C70.515 4.77 65.805 -0.00499608 60 3.92312e-06C58.985 3.92312e-06 57.97 0.145004 57 0.440004C51.445 2.115 48.265 8.06 49.915 13.725L25.64 27.975C24.9531 27.2331 24.1593 26.5978 23.285 26.09ZM67.78 102.105C66.802 101.008 65.6035 100.13 64.2628 99.5291C62.922 98.9276 61.4694 98.6162 60 98.615C57.02 98.615 54.335 99.86 52.43 101.88L28.15 87.62L28.255 87.205H91.745C91.8 87.445 91.86 87.68 91.93 87.915L67.78 102.105ZM67.55 18.14L91.865 32.43L91.77 32.79C90.375 38.52 93.8 44.315 99.43 45.73V74.265C99.3 74.3 99.155 74.335 99.025 74.38L67.265 18.43C67.3662 18.3396 67.4614 18.2428 67.55 18.14ZM57.075 20.97C58.985 21.53 61.015 21.53 62.935 20.97L94.7 76.9C93.2393 78.3257 92.2114 80.1353 91.735 82.12H28.27C27.7924 80.1434 26.7704 78.3402 25.32 76.915L57.075 20.97ZM28.12 32.395L52.435 18.135L52.73 18.435L20.98 74.38L20.565 74.265V45.725L20.94 45.62C26.515 43.985 29.73 38.07 28.12 32.395Z" fill="white"/>
</g>
<defs>
<clipPath id="clip0_31_26">
<rect width="120" height="120" fill="white"/>
</clipPath>
</defs>
</svg>
