<svg width="248" height="120" viewBox="0 0 248 120" fill="none" xmlns="http://www.w3.org/2000/svg">
<g clip-path="url(#clip0_31_17)">
<path d="M163.389 33.7706H206.1V41.6516H189.157V83.1135H180.685V41.6516H163.389V33.7706Z" fill="white"/>
<path d="M93.1441 33.7701V41.6513H58.9085V54.3296H86.4407V62.2106H58.9085V75.2318H93.1441V83.1131H50.4368V41.6513L50.4335 33.7701H93.1441Z" fill="white"/>
<path d="M114.471 33.7912H103.384L143.094 83.1341H154.213L134.356 58.4797L154.182 33.8289L143.094 33.846L128.805 51.588L114.471 33.7912Z" fill="white"/>
<path d="M125.85 69.0371L120.298 62.136L103.355 83.1716H114.473L125.85 69.0371Z" fill="white"/>
<path fill-rule="evenodd" clip-rule="evenodd" d="M50.7354 83.1135L10.9722 33.75H0.382812V83.0929H8.85435V44.2969L40.093 83.1135H50.7354Z" fill="white"/>
<path d="M208.003 82.812C207.383 82.812 206.855 82.5971 206.413 82.1674C205.972 81.7376 205.753 81.2175 205.759 80.601C205.753 80.0018 205.972 79.4869 206.413 79.0571C206.855 78.6274 207.383 78.4125 208.003 78.4125C208.601 78.4125 209.123 78.6274 209.565 79.0571C210.013 79.4869 210.236 80.0018 210.242 80.601C210.236 81.0083 210.133 81.3814 209.926 81.7147C209.714 82.0541 209.444 82.32 209.105 82.5124C208.772 82.7104 208.405 82.812 208.003 82.812Z" fill="white"/>
<path d="M222.463 62.025H226.217V76.4843C226.211 77.8133 225.924 78.9499 225.361 79.9054C224.793 80.8609 224.007 81.5903 222.997 82.1051C221.992 82.614 220.815 82.8743 219.478 82.8743C218.255 82.8743 217.159 82.6534 216.183 82.2236C215.207 81.7939 214.432 81.1493 213.864 80.301C213.29 79.4528 213.008 78.3956 213.008 77.1289H216.769C216.774 77.6831 216.901 78.1635 217.141 78.5651C217.383 78.9668 217.715 79.272 218.14 79.4869C218.57 79.7018 219.064 79.8094 219.621 79.8094C220.224 79.8094 220.74 79.6849 221.159 79.4303C221.578 79.1816 221.9 78.8081 222.124 78.3105C222.342 77.8189 222.457 77.208 222.463 76.4843V62.025Z" fill="white"/>
<path d="M241.663 67.68C241.572 66.8036 241.17 66.1192 240.47 65.6329C239.763 65.1409 238.851 64.8979 237.731 64.8979C236.945 64.8979 236.268 65.0167 235.706 65.2485C235.143 65.4859 234.707 65.8027 234.408 66.204C234.11 66.6056 233.961 67.0635 233.949 67.5784C233.949 68.0081 234.052 68.3812 234.253 68.6921C234.454 69.009 234.724 69.2745 235.074 69.4894C235.418 69.7099 235.803 69.891 236.222 70.038C236.647 70.185 237.072 70.3095 237.496 70.4111L239.453 70.8919C240.24 71.0726 241.003 71.316 241.732 71.6269C242.461 71.9325 243.121 72.3225 243.701 72.792C244.281 73.2611 244.74 73.8266 245.079 74.4881C245.417 75.15 245.59 75.9244 245.59 76.818C245.59 78.0225 245.28 79.08 244.654 79.9957C244.028 80.9062 243.127 81.6187 241.945 82.1332C240.768 82.6425 239.344 82.9024 237.668 82.9024C236.05 82.9024 234.638 82.6537 233.45 82.1561C232.256 81.6641 231.325 80.9404 230.654 79.9901C229.982 79.0402 229.621 77.8811 229.569 76.5184H233.289C233.341 77.2309 233.57 77.8245 233.961 78.3052C234.356 78.78 234.873 79.1306 235.504 79.3684C236.142 79.6001 236.853 79.719 237.64 79.719C238.461 79.719 239.184 79.5945 239.809 79.3511C240.429 79.1081 240.917 78.7687 241.268 78.3277C241.624 77.8924 241.801 77.3779 241.807 76.7899C241.801 76.2525 241.64 75.8059 241.33 75.4552C241.015 75.1046 240.578 74.8106 240.021 74.5732C239.46 74.3355 238.805 74.1206 238.059 73.9342L235.683 73.3346C233.966 72.8992 232.606 72.2377 231.612 71.3497C230.614 70.4621 230.12 69.2861 230.12 67.8101C230.12 66.6 230.453 65.5369 231.125 64.6264C231.79 63.7162 232.703 63.0094 233.857 62.5061C235.016 61.9972 236.325 61.7482 237.783 61.7482C239.264 61.7482 240.561 61.9972 241.681 62.5061C242.8 63.0094 243.678 63.7106 244.315 64.6039C244.953 65.4971 245.285 66.5209 245.303 67.68H241.663Z" fill="white"/>
</g>
<defs>
<clipPath id="clip0_31_17">
<rect width="247.568" height="120" fill="white" transform="translate(0.382812)"/>
</clipPath>
</defs>
</svg>
