<?xml version="1.0" encoding="UTF-8" standalone="no"?>
<!DOCTYPE svg PUBLIC "-//W3C//DTD SVG 1.1//EN" "http://www.w3.org/Graphics/SVG/1.1/DTD/svg11.dtd">
<!-- Created with Vectornator (http://vectornator.io/) -->
<svg height="100.0px" stroke-miterlimit="10" style="fill-rule:nonzero;clip-rule:evenodd;stroke-linecap:round;stroke-linejoin:round;" version="1.1" viewBox="0 0 100 100" width="100.0px" xml:space="preserve" xmlns="http://www.w3.org/2000/svg" xmlns:vectornator="http://vectornator.io" xmlns:xlink="http://www.w3.org/1999/xlink">
<defs/>
<clipPath id="ArtboardFrame">
<rect height="100" width="100" x="0" y="0"/>
</clipPath>
<g clip-path="url(#ArtboardFrame)" id="Layer-1" vectornator:layerName="Layer 1">
<path d="M97-1.42109e-14C97-1.65685 98.3431-3 100-3C101.657-3 103-1.65685 103-1.42109e-14C103 1.65685 101.657 3 100 3C98.3431 3 97 1.65685 97-1.42109e-14Z" fill="#ffffff" fill-rule="nonzero" opacity="1" stroke="none" vectornator:layerName="Oval 4"/>
<path d="M-3 0C-3-1.65685-1.65685-3 0-3C1.65685-3 3-1.65685 3 0C3 1.65685 1.65685 3 0 3C-1.65685 3-3 1.65685-3 0Z" fill="#ffffff" fill-rule="nonzero" opacity="1" stroke="none" vectornator:layerName="Oval 5"/>
<path d="M-3 100C-3 98.3431-1.65685 97 0 97C1.65685 97 3 98.3431 3 100C3 101.657 1.65685 103 0 103C-1.65685 103-3 101.657-3 100Z" fill="#ffffff" fill-rule="nonzero" opacity="1" stroke="none" vectornator:layerName="Oval 6"/>
<path d="M97 100C97 98.3431 98.3431 97 100 97C101.657 97 103 98.3431 103 100C103 101.657 101.657 103 100 103C98.3431 103 97 101.657 97 100Z" fill="#ffffff" fill-rule="nonzero" opacity="1" stroke="none" vectornator:layerName="Oval 7"/>
<path d="M0-1.42109e-14L100-1.42109e-14L100 100L0 100L0-1.42109e-14Z" fill="none" opacity="1" stroke="#ffffff" stroke-linecap="butt" stroke-linejoin="round" stroke-width="0.5" vectornator:layerName="Rectangle 1"/>
</g>
</svg>
