<svg width="135" height="120" viewBox="0 0 135 120" fill="none" xmlns="http://www.w3.org/2000/svg">
<path d="M67.1914 72.2361C73.9492 72.2361 79.4275 66.7578 79.4275 60C79.4275 53.2422 73.9492 47.7639 67.1914 47.7639C60.4336 47.7639 54.9553 53.2422 54.9553 60C54.9553 66.7578 60.4336 72.2361 67.1914 72.2361Z" fill="white"/>
<path d="M113.667 39.8211C111.306 38.9624 108.837 38.1038 106.261 37.3524C106.905 34.7764 107.442 32.2004 107.871 29.7317C110.125 15.5635 107.657 5.58139 100.787 1.71735C98.7478 0.536672 96.4937 0 93.9177 0C86.4043 0 76.8515 5.58139 67.1914 14.9195C57.5313 5.58139 47.9785 0 40.4651 0C37.8891 0 35.6351 0.536672 33.5957 1.71735C26.7263 5.68873 24.2576 15.6708 26.5116 29.7317C26.941 32.2004 27.4776 34.7764 28.1216 37.3524C25.5456 38.1038 23.0769 38.8551 20.7156 39.8211C7.29875 44.9732 0 52.0572 0 60C0 67.9428 7.40608 75.0268 20.7156 80.1789C23.0769 81.0376 25.5456 81.8962 28.1216 82.6476C27.4776 85.2236 26.941 87.7996 26.5116 90.2683C24.2576 104.436 26.7263 114.419 33.5957 118.283C35.6351 119.463 37.8891 120 40.4651 120C48.0859 120 57.6386 114.419 67.1914 105.08C76.8515 114.419 86.4043 120 93.9177 120C96.4937 120 98.7478 119.463 100.787 118.283C107.657 114.311 110.125 104.329 107.871 90.2683C107.442 87.7996 106.905 85.2236 106.261 82.6476C108.837 81.8962 111.306 81.1449 113.667 80.1789C127.084 75.0268 134.383 67.9428 134.383 60C134.383 52.0572 127.084 44.9732 113.667 39.8211ZM97.7817 7.08408C102.182 9.66011 103.685 17.6029 101.86 28.873C101.538 31.127 101.002 33.4884 100.358 35.9571C94.7764 34.669 88.873 33.8104 82.6476 33.2737C78.9982 28.1216 75.2415 23.5063 71.4848 19.3202C79.4275 11.4848 87.4776 6.11807 94.025 6.11807C95.4204 6.11807 96.7084 6.44007 97.7817 7.08408ZM85.7603 70.7334C83.8283 74.1682 81.5742 77.6029 79.2129 81.0376C75.2415 81.3596 71.2701 81.4669 67.1914 81.4669C63.0054 81.4669 59.034 81.3596 55.1699 81.0376C52.8086 77.6029 50.6619 74.1682 48.7299 70.7334C46.6905 67.1914 44.7585 63.542 43.0411 60C44.7585 56.458 46.6905 52.8086 48.7299 49.2665C50.6619 45.8318 52.9159 42.3971 55.2773 38.9624C59.2487 38.6404 63.22 38.5331 67.2987 38.5331C71.4848 38.5331 75.4562 38.6404 79.3202 38.9624C81.6816 42.3971 83.8283 45.8318 85.7603 49.2665C87.7996 52.8086 89.7317 56.458 91.449 60C89.6243 63.542 87.7996 67.0841 85.7603 70.7334ZM94.669 67.1914C96.2791 70.9481 97.5671 74.5975 98.7478 78.2469C95.0984 79.1055 91.2343 79.7496 87.1556 80.2862C88.4436 78.2469 89.839 76.1002 91.0197 73.8462C92.3077 71.5921 93.4884 69.3381 94.669 67.1914ZM67.1914 96.2791C64.6154 93.4884 62.1467 90.483 59.7853 87.3703C62.254 87.4776 64.7227 87.585 67.1914 87.585C69.6601 87.585 72.1288 87.4776 74.5975 87.3703C72.2361 90.483 69.7674 93.4884 67.1914 96.2791ZM47.2272 80.1789C43.1485 79.6422 39.2844 78.9982 35.6351 78.1395C36.8157 74.5975 38.1038 70.8408 39.7138 67.0841C40.8945 69.2308 42.0751 71.4848 43.3631 73.6315C44.6512 75.9928 45.9392 78.0322 47.2272 80.1789ZM39.7138 52.8086C38.1038 49.0519 36.8157 45.4025 35.6351 41.7531C39.2844 40.8945 43.1485 40.2504 47.2272 39.7138C45.9392 41.7531 44.5438 43.8998 43.3631 46.1538C42.0751 48.4079 40.8945 50.6619 39.7138 52.8086ZM67.1914 23.7209C69.7674 26.5116 72.2361 29.517 74.5975 32.6297C72.1288 32.5224 69.6601 32.415 67.1914 32.415C64.7227 32.415 62.254 32.5224 59.7853 32.6297C62.1467 29.517 64.6154 26.5116 67.1914 23.7209ZM91.0197 46.2612L87.1556 39.8211C91.2343 40.3578 95.0984 41.0018 98.7478 41.8605C97.5671 45.4025 96.2791 49.1592 94.669 52.9159C93.4884 50.6619 92.3077 48.4079 91.0197 46.2612ZM32.5224 28.873C30.6977 17.6029 32.2004 9.66011 36.6011 7.08408C37.6744 6.44007 38.9624 6.11807 40.3578 6.11807C46.7978 6.11807 54.8479 11.3775 62.898 19.3202C59.1413 23.3989 55.3846 28.1216 51.7352 33.2737C45.5098 33.8104 39.6064 34.7764 34.025 35.9571C33.381 33.4884 32.9517 31.127 32.5224 28.873ZM6.01073 60C6.01073 54.9553 12.1288 49.5885 22.8623 45.6172C25.0089 44.7585 27.3703 44.0072 29.7317 43.3631C31.449 48.7299 33.5957 54.4186 36.1717 60.1073C33.5957 65.7961 31.3417 71.3775 29.7317 76.7442C14.9195 72.4508 6.01073 66.0107 6.01073 60ZM36.6011 112.916C32.2004 110.34 30.6977 102.397 32.5224 91.127C32.8444 88.873 33.381 86.5116 34.025 84.0429C39.6064 85.3309 45.5098 86.1896 51.7352 86.7263C55.3846 91.8784 59.1413 96.4937 62.898 100.68C54.9553 108.515 46.9052 113.882 40.3578 113.882C38.9624 113.882 37.6744 113.56 36.6011 112.916ZM101.86 91.127C103.685 102.397 102.182 110.34 97.7817 112.916C96.7084 113.56 95.4204 113.882 94.025 113.882C87.585 113.882 79.5349 108.623 71.4848 100.68C75.2415 96.6011 78.9982 91.8784 82.6476 86.7263C88.873 86.1896 94.7764 85.2236 100.358 84.0429C101.002 86.5116 101.431 88.873 101.86 91.127ZM111.521 74.3828C109.374 75.2415 107.013 75.9928 104.651 76.6368C102.934 71.2701 100.787 65.5814 98.2111 59.8927C100.787 54.2039 103.041 48.6225 104.651 43.2558C119.463 47.5492 128.372 53.9893 128.372 60C128.372 65.0447 122.147 70.4114 111.521 74.3828Z" fill="white"/>
</svg>
