<svg width="160" height="120" viewBox="0 0 160 120" fill="none" xmlns="http://www.w3.org/2000/svg">
<g clip-path="url(#clip0_31_28)">
<path d="M137.416 68.9375C131.834 68.9691 127 70.3125 122.945 72.3128C121.448 69.3441 119.951 66.75 119.702 64.8128C119.421 62.5628 119.078 61.1875 119.421 58.5003C119.764 55.8125 121.323 52 121.323 51.6875C121.292 51.4062 120.98 50.0313 117.768 50C114.556 49.9688 111.78 50.625 111.468 51.4688C111.156 52.3125 110.532 54.25 110.127 56.25C109.565 59.1875 103.702 69.5938 100.365 75.0625C99.2729 72.9375 98.3373 71.0625 98.1499 69.5622C97.8695 67.3125 97.5261 65.9372 97.8695 63.25C98.2125 60.5622 99.772 56.75 99.772 56.4375C99.7408 56.1563 99.4289 54.7813 96.2168 54.75C93.0041 54.7188 90.2286 55.375 89.9167 56.2188C89.6048 57.0625 89.2618 59.0625 88.5756 61C87.9203 62.9375 80.1232 80.3125 78.096 84.8438C77.0667 87.1563 76.1626 89 75.5073 90.25C74.8524 91.5 75.4761 90.3438 75.4138 90.4688C74.8524 91.5313 74.5405 92.125 74.5405 92.125V92.1566C74.1038 92.9378 73.636 93.6875 73.4174 93.6875C73.2614 93.6875 72.9496 91.5938 73.4798 88.7191C74.6337 82.6875 77.4407 73.2816 77.4098 72.9378C77.4098 72.7816 77.9397 71.125 75.6006 70.2816C73.3238 69.4378 72.5132 70.8441 72.3258 70.8441C72.1387 70.8441 71.9827 71.3441 71.9827 71.3441C71.9827 71.3441 74.509 60.7506 67.1485 60.7506C62.5326 60.7506 56.1702 65.7819 53.0201 70.3756C51.024 71.4694 46.7824 73.7816 42.2913 76.2506C40.5759 77.1881 38.7982 78.1881 37.114 79.0944L36.7712 78.7188C27.8513 69.1875 11.3526 62.4375 12.0388 49.625C12.2883 44.9688 13.9101 32.6875 43.7266 17.8125C68.1472 5.62501 87.7023 8.96876 91.1016 16.4063C95.9358 27.0313 80.6534 46.7813 55.2663 49.625C45.5979 50.7188 40.5138 46.9688 39.2354 45.5625C37.8943 44.0938 37.7072 44.0313 37.2082 44.3125C36.3973 44.75 36.8963 46.0625 37.2082 46.8438C37.9567 48.8125 41.0756 52.3125 46.3776 54.0625C51.0244 55.5938 62.3773 56.4375 76.1002 51.125C91.4761 45.1563 103.484 28.5938 99.9594 14.75C96.3727 0.656256 73.0437 -3.96875 50.9935 3.875C37.8628 8.5625 23.6409 15.875 13.4111 25.4688C1.24754 36.8438 -0.686144 46.7812 0.124756 50.9062C2.96322 65.625 23.2042 75.2188 31.3132 82.3125C30.9078 82.5309 30.5335 82.7497 30.1905 82.9375C26.136 84.9372 10.6977 93.0313 6.83028 101.593C2.46389 111.281 7.51643 118.25 10.8848 119.188C21.3017 122.094 31.9682 116.875 37.7381 108.281C43.4764 99.6875 42.7906 88.5313 40.1396 83.4375L40.0457 83.25L43.2269 81.375C45.2857 80.1563 47.3129 79.0312 49.0904 78.0622C48.0926 80.7809 47.375 83.9997 47.001 88.6872C46.5644 94.1875 48.81 101.312 51.7729 104.125C53.0828 105.343 54.6422 105.375 55.6091 105.375C59.0398 105.375 60.5992 102.531 62.3146 99.1247C64.4354 94.9684 66.3067 90.1559 66.3067 90.1559C66.3067 90.1559 63.9676 103.187 70.3612 103.187C72.7004 103.187 75.0395 100.156 76.0999 98.5934V98.6247C76.0999 98.6247 76.1623 98.5309 76.287 98.3122C76.4179 98.1183 76.5427 97.9204 76.6613 97.7188V97.6563C77.597 96.0313 79.6866 92.3125 82.8054 86.1563C86.8284 78.2188 90.6961 68.2812 90.6961 68.2812C90.6961 68.2812 91.0704 70.7188 92.2244 74.7188C92.9102 77.0941 94.4072 79.6875 95.5612 82.2188C94.6255 83.5313 94.0642 84.2816 94.0642 84.2816L94.0954 84.3128C93.3471 85.3128 92.5047 86.3756 91.6318 87.4378C88.4505 91.2503 84.6455 95.5944 84.1465 96.8444C83.5539 98.3128 83.6787 99.4066 84.8327 100.282C85.6748 100.907 87.1718 101.032 88.7624 100.907C91.6318 100.719 93.6278 100.001 94.6259 99.5628C96.1853 99.0003 97.963 98.1566 99.6784 96.9066C102.797 94.5944 104.7 91.3131 104.513 86.9381C104.419 84.5319 103.639 82.1569 102.673 79.9069C102.953 79.5006 103.234 79.0941 103.515 78.6569C108.442 71.4378 112.247 63.5006 112.247 63.5006C112.247 63.5006 112.622 65.9381 113.776 69.9381C114.368 71.9694 115.553 74.1884 116.614 76.3759C111.998 80.1572 109.097 84.5322 108.099 87.4072C106.259 92.7197 107.694 95.1259 110.407 95.6884C111.623 95.9384 113.37 95.3759 114.68 94.8134C116.302 94.2822 118.266 93.3756 120.076 92.0322C123.195 89.7197 126.189 86.5009 126.033 82.1572C125.939 80.1572 125.409 78.1884 124.692 76.3134C128.621 74.6884 133.705 73.7509 140.161 74.5322C154.04 76.1572 156.785 84.8447 156.255 88.4697C155.724 92.095 152.824 94.0947 151.857 94.7197C150.89 95.3134 150.578 95.5325 150.672 95.9697C150.796 96.6263 151.233 96.5947 152.075 96.47C153.229 96.2822 159.373 93.5013 159.623 86.8141C159.997 78.2191 151.857 68.8441 137.416 68.9375ZM30.3776 105.094C25.7929 110.125 19.3369 112.031 16.5923 110.406C13.6294 108.688 14.783 101.281 20.4285 95.9375C23.8592 92.6875 28.3191 89.6875 31.2509 87.8438C31.9058 87.4375 32.9039 86.8441 34.089 86.125C34.2761 86.0003 34.4009 85.9375 34.4009 85.9375C34.6192 85.8125 34.8687 85.6563 35.1182 85.5C37.2079 93.125 35.2118 99.8125 30.3776 105.094ZM63.9052 82.25C62.3146 86.1563 58.9462 96.1875 56.919 95.625C55.1721 95.1563 54.112 87.5625 56.5756 80.0625C57.8231 76.2809 60.4742 71.7812 62.0336 70.0309C64.5602 67.2184 67.3044 66.2809 67.9909 67.4372C68.8018 68.9375 64.9032 79.8125 63.9052 82.25ZM91.5694 95.5C90.8832 95.8441 90.2595 96.0938 89.9788 95.9066C89.7605 95.7816 90.2592 95.3128 90.2592 95.3128C90.2592 95.3128 93.7211 91.5941 95.0934 89.8753C95.8731 88.8756 96.8087 87.7194 97.8068 86.4066V86.7816C97.8071 91.2813 93.5031 94.2813 91.5694 95.5ZM112.902 90.625C112.403 90.25 112.466 89.0938 114.15 85.4688C114.805 84.0313 116.302 81.625 118.89 79.3438C119.202 80.2812 119.39 81.1872 119.358 82.0313C119.327 87.6563 115.335 89.75 112.902 90.625Z" fill="#CD6799"/>
</g>
<defs>
<clipPath id="clip0_31_28">
<rect width="159.685" height="120" fill="white"/>
</clipPath>
</defs>
</svg>
