<svg width="120" height="120" viewBox="0 0 120 120" fill="none" xmlns="http://www.w3.org/2000/svg">
<path d="M92.5 47.55C88.7503 46.2586 85.4404 43.9365 82.95 40.85C80.2052 37.4112 76.7103 34.6457 72.7325 32.7651C68.7547 30.8846 64.3995 29.9387 60 30C54.0818 29.5809 48.2229 31.4062 43.59 35.1125C38.9571 38.8189 35.8902 44.1342 35 50C36.7534 47.0662 39.3923 44.7643 42.537 43.4256C45.6817 42.0869 49.17 41.7803 52.5 42.55C56.2435 43.879 59.5479 46.2147 62.05 49.3C64.8098 52.7114 68.3114 55.4483 72.2883 57.3025C76.2653 59.1566 80.6128 60.0792 85 60C90.9182 60.4191 96.7771 58.5938 101.41 54.8875C106.043 51.1812 109.11 45.8658 110 40C108.278 42.9689 105.648 45.3055 102.497 46.665C99.3457 48.0245 95.841 48.3348 92.5 47.55ZM27.5 72.45C31.2497 73.7415 34.5596 76.0636 37.05 79.15C39.7948 82.5888 43.2897 85.3543 47.2675 87.2349C51.2453 89.1155 55.6005 90.0613 60 90C65.9182 90.4191 71.7771 88.5938 76.41 84.8875C81.0429 81.1812 84.1098 75.8658 85 70C83.2466 72.9338 80.6077 75.2357 77.463 76.5744C74.3183 77.9132 70.83 78.2197 67.5 77.45C63.7565 76.121 60.4521 73.7854 57.95 70.7C55.1828 67.2971 51.6798 64.5662 47.7045 62.7128C43.7293 60.8594 39.3855 59.9319 35 60C29.0818 59.5809 23.2229 61.4062 18.59 65.1125C13.9571 68.8189 10.8902 74.1342 10 80C11.7215 77.0311 14.352 74.6945 17.5032 73.335C20.6543 71.9755 24.159 71.6652 27.5 72.45Z" fill="white"/>
</svg>
