<svg width="120" height="120" viewBox="0 0 120 120" fill="none" xmlns="http://www.w3.org/2000/svg">
<path d="M0 60V120H120V0H0V60ZM96.7008 55.2C99.5749 55.867 102.187 57.3702 104.208 59.52C105.321 60.6782 106.288 61.9677 107.088 63.36C107.088 63.5136 101.904 67.0176 98.7456 68.976C98.6304 69.0528 98.1696 68.5536 97.6608 67.7952C97.0842 66.8003 96.265 65.9677 95.2796 65.3751C94.2942 64.7825 93.1747 64.4493 92.0256 64.4064C88.3872 64.1568 86.0448 66.0672 86.064 69.2064C86.0339 69.988 86.2129 70.7634 86.5824 71.4528C87.3792 73.1136 88.8672 74.1024 93.5328 76.1184C102.125 79.8144 105.802 82.2528 108.086 85.7184C110.64 89.5584 111.206 95.76 109.478 100.349C107.558 105.341 102.854 108.73 96.2016 109.853C93.1631 110.201 90.093 110.169 87.0624 109.757C82.4373 109.006 78.1707 106.804 74.88 103.469C73.776 102.25 71.6256 99.072 71.76 98.8416C72.1105 98.5814 72.4794 98.3472 72.864 98.1408L77.28 95.6064L80.7264 93.6096L81.4464 94.6752C82.6615 96.4134 84.2079 97.8945 85.9968 99.0336C89.8368 101.05 95.0784 100.771 97.6704 98.4384C98.5407 97.5836 99.0836 96.4506 99.2046 95.2367C99.3256 94.0229 99.0171 92.805 98.3328 91.7952C97.3728 90.4608 95.4528 89.3376 90.0864 86.9952C83.8944 84.3264 81.2256 82.6752 78.7872 80.0448C77.265 78.309 76.1411 76.2611 75.4944 74.0448C75.012 71.5127 74.9407 68.9195 75.2832 66.3648C76.56 60.384 81.0432 56.208 87.5904 54.9696C90.6225 54.5944 93.6938 54.6786 96.7008 55.2192V55.2ZM68.5344 60.2304V65.1456H52.9536V109.526H41.904V65.136H26.2848V60.336C26.2429 58.6836 26.2877 57.0301 26.4192 55.3824C26.4768 55.3056 36.0192 55.2672 47.5392 55.2864H68.4768L68.5344 60.2304Z" fill="#3178C6"/>
</svg>
